<svg width="102" height="56" viewBox="0 0 102 56" fill="none" xmlns="http://www.w3.org/2000/svg">
<path d="M2 44L0.500003 44L0.500004 45.5L2 45.5L2 44ZM101.061 45.0607C101.646 44.4749 101.646 43.5251 101.061 42.9393L91.5147 33.3934C90.9289 32.8076 89.9792 32.8076 89.3934 33.3934C88.8076 33.9792 88.8076 34.9289 89.3934 35.5147L97.8787 44L89.3934 52.4853C88.8076 53.0711 88.8076 54.0208 89.3934 54.6066C89.9792 55.1924 90.9289 55.1924 91.5147 54.6066L101.061 45.0607ZM0.5 1.21902e-07L0.500003 44L3.5 44L3.5 -9.28385e-08L0.5 1.21902e-07ZM2 45.5L100 45.5L100 42.5L2 42.5L2 45.5Z" fill="black"/>
</svg>
